<?xml version="1.0" encoding="UTF-8" standalone="no"?>
<!-- Created with Inkscape (http://www.inkscape.org/) -->

<svg
   width="304mm"
   height="134mm"
   viewBox="0 0 304 134"
   version="1.1"
   id="svg1"
   xml:space="preserve"
   sodipodi:docname="premierlogo.svg"
   inkscape:version="1.4.2 (f4327f4, 2025-05-13)"
   xmlns:inkscape="http://www.inkscape.org/namespaces/inkscape"
   xmlns:sodipodi="http://sodipodi.sourceforge.net/DTD/sodipodi-0.dtd"
   xmlns="http://www.w3.org/2000/svg"
   xmlns:svg="http://www.w3.org/2000/svg"><sodipodi:namedview
     id="namedview1"
     pagecolor="#ffffff"
     bordercolor="#000000"
     borderopacity="0.25"
     inkscape:showpageshadow="2"
     inkscape:pageopacity="0.0"
     inkscape:pagecheckerboard="0"
     inkscape:deskcolor="#d1d1d1"
     inkscape:document-units="mm"
     inkscape:zoom="0.44809905"
     inkscape:cx="397.23361"
     inkscape:cy="561.25984"
     inkscape:window-width="1366"
     inkscape:window-height="705"
     inkscape:window-x="-8"
     inkscape:window-y="-8"
     inkscape:window-maximized="1"
     inkscape:current-layer="layer1" /><defs
     id="defs1" /><g
     inkscape:label="Capa 1"
     inkscape:groupmode="layer"
     id="layer1"><path
       style="fill:#af0000;fill-opacity:1"
       d="m 118.60207,123.59678 c 0.075,-0.18218 2.57802,-7.62904 5.5623,-16.54858 2.98429,-8.919544 5.52435,-16.328524 5.64457,-16.464414 0.12023,-0.13589 2.50653,-0.27145 5.30289,-0.30126 l 5.0843,-0.0542 5.58711,16.502964 c 3.0729,9.07664 5.58739,16.59408 5.58774,16.70542 3.6e-4,0.11135 -1.97395,0.15384 -4.38735,0.0944 l -4.388,-0.10803 -0.93328,-2.80239 -0.93328,-2.80238 h -5.7405 -5.7405 l -0.84511,2.82045 -0.84512,2.82046 -3.93989,0.002 c -2.16695,9.7e-4 -4.21267,0.10643 -4.54606,0.23436 -0.33338,0.12794 -0.5448,0.0836 -0.46982,-0.0986 z m 18.26548,-18.03745 c -0.95116,-2.86191 -1.78928,-5.36222 -1.8625,-5.55625 -0.16217,-0.429764 -0.14274,-0.483224 -2.08376,5.73264 l -1.5698,5.02708 h 3.62272 3.62271 z m 20.41894,1.58741 -0.0953,-16.492464 8.69982,1e-4 c 7.48707,8e-5 8.99339,0.0915 10.80575,0.65553 2.84325,0.88492 4.44717,2.19269 5.62114,4.58326 0.87485,1.78147 0.97782,2.36806 0.96919,5.521024 -0.0112,4.0871 -0.72349,6.14292 -2.90379,8.38074 -2.04644,2.10043 -4.36789,2.79934 -9.96294,2.9995 l -4.7625,0.17038 -0.004,5.29802 -0.004,5.29802 -4.13396,0.0392 -4.13396,0.0392 z m 15.36517,-1.70516 c 2.54817,-1.17767 2.71558,-5.652594 0.27194,-7.269144 -0.64065,-0.42381 -1.87524,-0.64899 -4.10954,-0.74955 l -3.19377,-0.14373 0.0832,4.360574 c 0.0457,2.39831 0.0939,4.42264 0.10697,4.49849 0.0556,0.32218 5.93139,-0.27615 6.84123,-0.69664 z m 16.46583,1.70525 7e-5,-16.492364 8.37847,0.004 c 10.68203,0.005 12.74814,0.48134 15.36646,3.54027 3.42516,4.00152 2.92945,12.467054 -0.9206,15.721534 -2.31838,1.95975 -3.88601,2.39286 -9.39405,2.59541 l -5.09055,0.18721 -0.0247,5.40243 -0.0247,5.40244 -4.14521,0.0656 -4.14521,0.0656 z m 15.53191,-1.85706 c 1.12002,-0.57918 2.10705,-2.32307 2.10705,-3.72274 0,-1.33125 -1.07841,-3.080794 -2.23212,-3.621274 -0.6156,-0.28838 -2.43608,-0.57846 -4.0455,-0.64462 l -2.92623,-0.12028 -0.009,4.233334 c -0.005,2.32833 0.002,4.37598 0.0158,4.55032 0.0393,0.51007 5.87189,-0.045 7.08962,-0.67474 z M 55.238401,99.957086 c -3.58276,-0.51959 -10.70355,-2.11532 -14.85,-3.32781 -7.50805,-2.19548 -22.45633,-9.43534 -27.868836,-13.49764 -2.064485,-1.54948 -2.436711,-1.99028 -2.436711,-2.88565 0,-0.90218 0.232269,-1.17051 1.5875,-1.83399 3.107266,-1.52122 13.356587,-2.62648 30.515277,-3.29067 11.34688,-0.43923 54.26606,-2.29451 65.263879,-2.82118 42.22843,-2.02228 111.09949,-2.32702 155.04582,-0.68605 17.41743,0.65037 33.10983,1.63084 33.62414,2.10086 0.3519,0.3216 -11.34029,0.64478 -32.56581,0.90016 -43.58977,0.52445 -82.33767,1.83544 -109.53749,3.70605 -34.83082,2.39542 -55.069429,5.45602 -72.319429,10.93655 -6.80261,2.16127 -9.19725,3.41906 -12.36294,6.49364 -3.66903,3.56343 -5.04852,4.18463 -9.50928,4.282124 -1.94028,0.0424 -4.00403,0.008 -4.58612,-0.0764 z M 235.21204,62.743856 c -4.98465,-0.53588 -8.08195,-3.07558 -9.55828,-7.837555 -0.17044,-0.549754 -0.53048,-0.34816 -2.40031,1.343945 -2.77837,2.51428 -5.49523,4.3219 -8.20378,5.45827 -1.79016,0.75106 -2.67641,0.89013 -5.70185,0.8947 -3.47947,0.005 -3.62116,-0.0259 -4.93889,-1.08497 -1.68175,-1.35168 -2.37901,-2.70042 -2.39931,-4.64113 -0.009,-0.824 -0.0623,-1.498685 -0.11932,-1.499305 -0.057,-6.2e-4 -1.02857,0.768605 -2.15903,1.709385 -4.43964,3.69471 -8.90313,5.69783 -12.69628,5.69783 -2.49054,0 -3.7291,-0.41203 -5.10463,-1.69814 -2.11776,-1.98009 -2.50039,-4.74655 -1.2704,-9.185149 0.39305,-1.41834 1.91228,-5.97343 3.37607,-10.1224 1.54944,-4.39175 2.61427,-7.95431 2.54856,-8.52659 -0.31463,-2.74028 -6.15981,0.0226 -9.10544,4.30393 -1.38216,2.00889 -3.59634,7.50449 -6.71205,16.6593 l -2.5465,7.482349 -6.83383,0.10238 c -6.69383,0.10027 -6.82939,0.0879 -6.61726,-0.60318 0.29793,-0.97067 3.50206,-9.731809 6.12837,-16.756959 4.4399,-11.87634 4.33319,-11.4494 3.01219,-12.05129 -1.99765,-0.91018 -6.81392,2.78537 -8.86345,6.80098 -0.53306,1.04441 -2.67375,6.50267 -4.75709,12.12948 l -3.78788,10.230559 -6.73838,0.17639 c -3.70611,0.097 -6.73815,0.0641 -6.73787,-0.0731 2.7e-4,-0.13721 0.93691,-2.64257 2.0814,-5.56748 l 2.08091,-5.318019 -2.52188,2.25419 c -5.86322,5.240869 -10.62322,8.056109 -15.62783,9.242889 -3.67133,0.87061 -9.83717,0.61303 -12.39553,-0.51783 -2.31463,-1.02313 -4.41157,-3.33542 -5.24289,-5.78134 -0.95198,-2.800929 -0.8693,-8.166049 0.17742,-11.513009 3.0496,-9.75128 10.93635,-17.72199 19.87808,-20.08969 7.45424,-1.97382 13.81399,-0.72879 16.42106,3.2147 0.84533,1.27866 0.97014,1.81272 0.96709,4.13826 -0.003,2.28679 -0.15169,2.93852 -1.03568,4.53962 -1.39848,2.53295 -5.46094,6.30803 -8.48582,7.88555 -4.15095,2.16477 -6.84234,2.83793 -11.37708,2.84556 l -3.96875,0.007 v 2.75332 c 0,2.4774 0.0956,2.86689 0.95367,3.88669 1.69939,2.019614 4.03006,2.520579 7.9366,1.705914 4.24423,-0.885074 10.20521,-4.824514 14.78463,-9.770714 2.5098,-2.71082 3.08997,-3.94847 7.47441,-15.94499 l 1.86951,-5.11528 6.42115,-0.0961 c 7.26619,-0.10881 6.89953,-0.28851 5.72395,2.80537 -0.38345,1.00916 -0.64801,1.88401 -0.58791,1.94411 0.0601,0.0601 0.77651,-0.50674 1.59204,-1.25963 2.83885,-2.62081 7.80809,-4.61512 11.51111,-4.61976 1.82917,-0.002 4.81175,1.39644 5.73126,2.68777 0.3972,0.55781 0.90541,1.69468 1.12937,2.52638 l 0.40718,1.51218 2.18693,-1.71665 c 2.8842,-2.26397 4.35813,-3.12916 6.70824,-3.93771 2.79026,-0.95999 5.47199,-1.21652 7.75745,-0.74207 3.53655,0.73419 4.89321,2.49423 4.89321,6.34809 0,2.83962 -0.26648,3.76225 -3.77458,13.0689 -3.36563,8.9287 -3.51209,9.42563 -2.97048,10.07823 1.15259,1.38878 5.94121,-0.43641 8.36282,-3.1875 1.52797,-1.73587 3.414,-6.15641 8.39604,-19.67892 l 2.04706,-5.55625 h 6.46205 c 3.55413,0 6.46206,0.046 6.46206,0.10224 0,0.0562 -2.06375,6.02447 -4.58611,13.26277 -2.52236,7.23829 -4.58611,13.68405 -4.58611,14.3239 0,1.51456 0.67401,1.75343 3.02175,1.07093 1.67436,-0.48675 4.64591,-2.45095 5.66141,-3.74221 0.21609,-0.27477 0.49734,-1.42984 0.625,-2.56682 0.32771,-2.91871 2.22455,-7.71939 4.2321,-10.71096 2.11957,-3.1585 6.78474,-7.68499 9.65293,-9.36599 7.48191,-4.38503 17.08665,-4.86465 21.29423,-1.06336 0.78065,0.70527 1.62844,1.69111 1.88397,2.19077 2.65157,5.1846 -1.63971,12.19521 -10.06583,16.44443 -3.37903,1.70402 -6.17449,2.32574 -10.37953,2.30844 l -3.61203,-0.0148 -0.21263,1.66855 c -0.23076,1.81084 0.0918,3.70811 0.83191,4.89322 2.31407,3.705409 10.73584,2.419919 17.63016,-2.69106 2.96438,-2.19759 6.04839,-5.42681 7.04105,-7.3726 0.75334,-1.47667 5.3191,-13.53253 6.52836,-17.23809 l 0.6044,-1.85209 h 6.49804 c 3.57392,0 6.49803,0.0748 6.49803,0.16623 0,0.0914 -0.47625,1.47119 -1.05833,3.06614 -0.58208,1.59494 -1.05833,3.02279 -1.05833,3.17299 0,0.1502 1.08087,-0.80778 2.40194,-2.12885 3.17722,-3.17723 6.16248,-4.68084 9.69133,-4.88131 4.30178,-0.24439 6.44312,1.47201 6.3921,5.12363 -0.0513,3.6736 -2.33172,7.23784 -5.60642,8.76279 -3.30652,1.53977 -6.2462,0.86392 -6.69531,-1.53931 -0.31502,-1.68567 -0.75491,-2.21731 -1.83464,-2.21731 -1.27816,0 -2.62841,0.82007 -4.25405,2.58368 -2.07762,2.25396 -2.62807,3.45812 -6.80141,14.87882 l -3.73843,10.230559 -7.12478,0.0955 c -3.91863,0.0525 -7.12478,-0.0332 -7.12478,-0.19055 0,-0.15732 0.78726,-2.25731 1.74947,-4.66664 0.9622,-2.409329 1.69508,-4.434969 1.62862,-4.501429 -0.0665,-0.0665 -0.65528,0.37492 -1.30849,0.98084 -2.6121,2.423034 -6.83342,5.340279 -9.92282,6.857389 -4.90814,2.41024 -9.00958,3.16984 -14.1384,2.61845 z M 121.58968,41.163837 c 3.81413,-1.93276 6.99365,-6.72559 7.00746,-10.56307 0.0146,-4.06186 -1.72072,-3.99018 -5.73606,0.23694 -1.32965,1.39977 -2.91736,3.27149 -3.52824,4.15938 -1.37453,1.99781 -3.58901,6.27396 -3.59133,6.93484 -0.003,0.77883 3.77446,0.28274 5.84817,-0.76809 z m 123.51551,0.39714 c 3.56996,-1.33569 7.70418,-6.39412 7.882,-9.64402 0.11599,-2.1199 -0.0269,-3.23026 -0.49872,-3.87552 -0.43196,-0.59074 -0.59893,-0.61049 -1.61238,-0.19071 -1.63286,0.67635 -4.99137,4.17771 -7.21988,7.52696 -1.76413,2.65132 -3.38588,5.82342 -3.38588,6.62269 0,0.58749 2.76088,0.33658 4.83486,-0.4394 z M 17.314481,61.670886 c 0.002,-1.67527 15.45172,-40.792449 18.47756,-46.784249 0.71282,-1.41154 1.86994,-3.20167 2.57137,-3.97807 0.70143,-0.7764 1.19863,-1.4883402 1.10488,-1.5820902 -0.32959,-0.32959 -5.77848,1.6586802 -8.38184,3.0584902 -6.46451,3.47594 -11.07088,8.85919 -11.5496,13.4975 -0.17416,1.6875 -0.0999,1.91742 1.07374,3.32211 1.14321,1.36834 1.22237,1.59819 0.84843,2.46354 -2.46139,5.69609 -8.11356,7.9393 -12.6906235,5.03661 -2.085364,-1.3225 -3.095266,-3.36924 -3.095266,-6.2731 0,-9.43974 10.6230885,-19.99629 24.9278595,-24.7717302 6.78391,-2.26471 9.62985,-2.65214 19.52214,-2.65764 8.17795,-0.005 9.2808,0.0672 12.13021,0.78939 6.77947,1.71825 11.16641,4.95791 12.32055,9.0984602 0.72657,2.60659 0.74084,4.16715 0.0675,7.38519 -1.08599,5.19037 -4.97274,10.99257 -9.67679,14.44566 -5.30807,3.89649 -12.89964,6.27812 -22.62124,7.09677 -2.2043,0.18562 -2.33187,0.24697 -2.74597,1.32056 -0.51879,1.34502 -6.39984,17.520249 -6.59332,18.134229 -0.099,0.31404 -2.20252,0.45472 -7.91236,0.52916 -4.27766,0.0558 -7.77742,-0.003 -7.77725,-0.13079 z m 28.57531,-26.309919 c 5.55011,-1.53415 9.82841,-5.21965 12.47179,-10.74371 1.90355,-3.97799 2.49653,-6.39603 2.24602,-9.15876 -0.25191,-2.77806 -1.40705,-4.2916 -4.27257,-5.5981702 -1.18523,-0.54042 -2.74202,-1.08284 -3.45954,-1.20538 -1.28644,-0.2197 -1.30778,-0.20423 -1.53556,1.11266 -0.52523,3.0365902 -3.61366,11.8328702 -8.27132,23.5578502 -0.58265,1.46675 -1.05937,2.74508 -1.05937,2.84074 0,0.1957 1.04076,-0.0203 3.88055,-0.80523 z m 17.40456,26.189329 c 0.0696,-0.19402 3.19281,-8.647469 6.94037,-18.785419 l 6.81374,-18.43264 h 6.28138 6.28138 l -1.19721,3.43619 c -1.2265,3.52025 -1.32076,4.41286 -0.30545,2.89253 0.31612,-0.47337 1.43191,-1.68818 2.47953,-2.6996 6.00276,-5.79531 14.626139,-5.6605 15.192859,0.23751 0.22793,2.37205 -0.40773,4.47754 -1.97975,6.55747 -2.52788,3.34464 -7.429199,4.81241 -9.420499,2.8211 -0.47625,-0.47625 -0.86591,-1.24539 -0.86591,-1.70921 0,-0.96072 -0.9939,-2.01099 -1.90305,-2.01099 -1.65383,0 -4.34402,2.44727 -6.07361,5.52518 -0.67185,1.19559 -2.85252,6.71578 -4.84595,12.26709 l -3.6244,10.093299 -6.95003,0.0801 c -4.51635,0.0521 -6.90569,-0.0434 -6.8234,-0.27264 z M 218.5379,18.911097 c -1.46545,-0.66736 -2.49153,-2.18836 -2.77325,-4.11086 -0.69585,-4.7487 4.23684,-9.6045902 9.82201,-9.6690802 3.64413,-0.0421 5.50771,1.82077 5.51013,5.5079802 0.002,2.49234 -0.33971,3.40981 -1.91905,5.15795 -2.37071,2.62409 -8.05953,4.28906 -10.63984,3.11401 z"
       id="path1" /></g></svg>
